<svg clip-rule="evenodd" fill-rule="evenodd" stroke-linejoin="round" stroke-miterlimit="2" viewBox="0 0 560 400" xmlns="http://www.w3.org/2000/svg"><g fill="#2621f6" fill-rule="nonzero" transform="matrix(1.38355 0 0 1.38355 96.8178 127.087)"><path d="m152.4 34c-1.3 1.4-2 3.2-2 5.1v39.9h14v-57.6z"/><path d="m150.4 2.7v21.3l14-14.8v-6.5z"/><path d="m144.4 29.2c-.3-12.1-5.3-17-17.1-17-5.5 0-26.4.1-26.4.1v90.4h13.7v-24c2.2 0 8.2.1 12.6.1 11.8 0 16.7-4.9 17-17 .2-.2.2-32.3.2-32.6zm-21.9 38.4c-5.3 0-7.8 0-7.8-4.6v-34.9c0-4.6 2.5-4.6 7.8-4.6 5.1 0 7.8 0 7.8 4.6v34.9c.1 4.6-2.7 4.5-7.8 4.6z"/><path d="m95 29.2c-.3-12.1-5.3-17-17.1-17-5.5 0-26.4.1-26.4.1v90.4h13.7v-24c2.2 0 8.2.1 12.6.1 11.8 0 16.7-4.9 17-17 .2-.2.2-32.3.2-32.6zm-21.8 38.4c-5.3 0-7.8 0-7.8-4.6v-34.9c0-4.6 2.5-4.6 7.8-4.6 5.1 0 7.8 0 7.8 4.6v34.9c0 4.6-2.8 4.5-7.8 4.6z"/><path d="m248.6 79v-50.8c0-4.6-2.8-4.6-7.8-4.6-5.3 0-7.8 0-7.8 4.6v50.8h-13.7v-66.6h12.7s8-.1 13.5-.1c11.8 0 16.7 4.9 17 17v49.7z"/><path d="m213.1 29.3c-.3-12.1-5.3-17-17-17h-17.5v11.3h12.7c5.1 0 7.8 0 7.8 4.6v6.6c-2.4 0-8.1-.1-12.3-.1-11.8 0-16.7 4.9-17 17v10.4c.3 12.1 5.3 17 17 17 5.5 0 26.4-.1 26.4-.1zm-13.7 33.8c0 4.6-2.5 4.6-7.8 4.6-5.1 0-7.8 0-7.8-4.6v-12.6c0-4.6 2.8-4.6 7.8-4.6 5.3 0 7.8 0 7.8 4.6z"/><path d="m45.6 29.3c-.3-12.1-5.3-17-17-17h-17.5v11.3h12.7c5.1 0 7.8 0 7.8 4.6v6.6c-2.4 0-8.1-.1-12.3-.1-11.8 0-16.7 4.9-17 17v10.4c.2 11.4 4.6 16.3 15 16.9l10.7-11.4c-1.1.1-2.4.1-4 .1-5.1 0-7.8 0-7.8-4.6v-12.6c0-4.6 2.8-4.6 7.8-4.6 5.3 0 7.8 0 7.8 4.6v28.4h13.7z"/></g></svg>