<?xml version="1.0" encoding="utf-8"?>
<!-- Generator: Adobe Illustrator 19.2.1, SVG Export Plug-In . SVG Version: 6.00 Build 0)  -->
<svg version="1.1" id="layer" xmlns="http://www.w3.org/2000/svg" xmlns:xlink="http://www.w3.org/1999/xlink" x="0px" y="0px"
	 viewBox="0 0 652 652" style="enable-background:new 0 0 652 652;" xml:space="preserve">
<style type="text/css">
	.st0{fill:#047BC1;}
	.st1{fill:#124E91;}
	.st2{fill:#167EC2;}
	.st3{fill:#0E7ABF;}
	.st4{fill:#D3E2EE;}
	.st5{fill:#104C8D;}
	.st6{fill:#0068AB;}
	.st7{fill:#1E3667;}
	.st8{fill:#B1C8D5;}
</style>
<g id="Visual-Design">
	<g id="Partners-_x26_-Alliances" transform="translate(-62.000000, -48.000000)">
		<g id="Asset-1" transform="translate(62.000000, 48.000000)">
			<path id="Shape" class="st0" d="M373,292.4h5.2l1.8,7.6h0.6c4.4-5.3,11-8.5,17.9-8.8c12.9,0,22,11.1,22,30.5
				c0,19.3-9,30.5-22,30.5c-6.9-0.2-13.4-3.4-17.8-8.7h-0.6v29h-7L373,292.4z M380,335.5c5.9,7.4,11.2,11.1,17.8,11.1
				c9.7,0,15.5-8.7,15.5-24.7s-5.8-24.7-15.5-24.7c-6.6,0-11.9,3.5-17.8,11V335.5z"/>
			<path id="Path" class="st0" d="M434.2,292.2h6.6v10.6h0.7c3.9-7.9,8.8-11.5,16.1-11.5h0.3v7.1h-1c-7.8,0-12.9,4.8-16.2,16.2v37.7
				h-6.6L434.2,292.2z"/>
			<rect id="Rectangle" x="471.3" y="291.3" class="st0" width="6.8" height="61"/>
			<path id="Path_1_" class="st0" d="M512.2,346.9c7.6,0,12.7-4.6,12.7-10.8c0-6.9-5.7-8.7-15.9-12.3c-12.5-4.4-18.9-7.8-18.9-16.8
				s7.6-15.7,19.9-15.7c8.3,0.1,15.9,4.2,20.4,10.8l-5.2,3.5c-3.6-5.5-9.8-8.8-16.5-8.8c-2.8-0.3-5.7,0.6-7.8,2.5
				c-2.1,1.9-3.3,4.5-3.2,7.2c0,6.3,6,7.8,16.2,11.5c12.2,4.4,18.5,8,18.5,17.4s-8.2,16.9-20.9,16.9c-9.3,0.2-18-4.2-23.2-11.6
				l5.4-4.2C499,343.5,505.1,346.9,512.2,346.9z"/>
			<path id="Path_2_" class="st0" d="M546.3,292.4h6.4v9.3h0.4c6.2-7,12.7-10.3,18.9-10.3c6.4-0.2,12.1,4.1,14,10.3h0.8
				c6.4-7,12.6-10.3,18.9-10.3c9.9,0,14.8,6.4,14.8,19.2v41.8h-6.6v-39.2c0-10.6-1.8-15.6-10.1-15.6c-5.4,0-11.2,3.5-17,11.1v43.7
				h-6.9v-39.2c0-10.6-1.8-15.6-10.1-15.6c-5.4,0-11.1,3.5-17,11.1v43.7h-6.9L546.3,292.4z"/>
			<path id="Shape_1_" class="st1" d="M177.9,267.6v29.8c3.4-4.8,9-7.6,14.9-7.5c14.6,0,24.4,11.5,24.4,30.8
				c0,20.1-9.2,31.6-24.3,31.6c-6.4,0.2-12.5-2.8-16.2-8l-1.7,7.1h-8.6c0.6-6,0.7-11.6,0.7-17v-66.9H177.9z M191.1,343.2
				c9.3,0,14.7-7.5,14.7-21.7c0-14.9-5.4-22.5-15.1-22.5c-5.2,0.2-10,2.9-12.9,7.1v29.4C180.8,340,185.7,342.9,191.1,343.2z"/>
			<polygon id="Path_3_" class="st1" points="237.4,271 237.4,352.3 227.3,352.3 227.3,271 			"/>
			<path id="Path_4_" class="st1" d="M264.8,291.3v40.4c0,7.9,2.5,11.6,8.5,11.6c5.7-0.5,11-3.4,14.6-8v-43.9h10.5v60h-9.8v-8
				c-6.5,6-12.1,9.1-18.6,9.1c-9.9,0-15.7-6.3-15.7-17.6v-43.4H264.8z"/>
			<path id="Shape_2_" class="st1" d="M322.8,323.8v1.1c0,11.9,5.4,18.6,14.7,18.6c6.1,0,11.7-3.6,14.2-9.2l7.8,4.7
				c-4.3,8.5-13.1,13.7-22.6,13.4c-16,0-24.8-10.4-24.8-29.9c0-20.1,8.9-31.1,24.1-31.1c14,0,23,10.7,23,29.3c0,1,0,2,0,3
				L322.8,323.8z M335.9,299.9c-7.7,0-12.5,5.5-13,15.6h25.4C348.1,305.5,343.3,299.9,335.9,299.9L335.9,299.9z"/>
			<path id="Shape_3_" class="st2" d="M612,267.6c4.7,0,8.5,3.8,8.5,8.5c0,4.7-3.8,8.5-8.5,8.5c-4.7,0-8.5-3.8-8.5-8.5
				C603.6,271.4,607.3,267.6,612,267.6z M612,283.1c1.9,0,3.7-0.8,4.9-2.1s2-3.2,1.9-5c0.2-2.6-1.1-5-3.3-6.4s-5-1.3-7.2,0
				c-2.2,1.3-3.5,3.8-3.3,6.4c-0.1,1.9,0.5,3.8,1.8,5.2c1.3,1.4,3.1,2.2,5,2.2V283.1z M608.8,271.1h3.9c2.3,0,3.4,0.9,3.4,2.8
				c0.1,0.7-0.2,1.4-0.7,2c-0.5,0.5-1.2,0.8-1.9,0.8l2.8,4.4h-1.7l-2.8-4.4h-1.4v4.4H609L608.8,271.1z M610.5,275.4h1.9
				c1.2,0,2.1-0.3,2.1-1.6s-1-1.4-2.1-1.4h-1.9V275.4z"/>
			<g id="Artwork_10" transform="translate(0.000000, 1.500000)">
				<polygon id="Path_5_" class="st3" points="119.8,315.7 99.8,327.2 99.8,327.3 120,350.5 120,350.5 140,338.9 119.8,315.7 				
					"/>
				<polygon id="Path_6_" class="st4" points="120,350.5 120,350.5 100.1,362 100.1,362 80.1,338.6 80.1,338.6 99.8,327.2 
					99.8,327.3 				"/>
				<polygon id="Path_7_" class="st4" points="119.8,315.7 119.8,315.7 99.8,327.2 80,304.2 99.6,292.5 99.7,292.5 				"/>
				<polygon id="Path_8_" class="st3" points="80.1,373.7 100.1,362 100.1,362 80.1,338.6 				"/>
				<polygon id="Path_9_" class="st5" points="80,304.2 99.8,327.2 80.1,338.6 79.9,304.2 				"/>
				<polygon id="Path_10_" class="st3" points="79.9,304.2 80,304.2 99.6,292.5 99.7,292.5 79.9,269.8 				"/>
				<polygon id="Path_11_" class="st6" points="40,350.2 40,350.2 80.1,373.7 80.1,338.6 80.1,338.6 60,327.2 40.2,315.9 				"/>
				<polygon id="Path_12_" class="st7" points="79.9,304.2 80.1,338.6 80.1,338.6 60,327.2 60,327.2 59.9,293 				"/>
				<polygon id="Path_13_" class="st6" points="79.9,269.8 59.9,293 59.9,293 79.9,304.2 79.9,304.2 				"/>
				<polygon id="Path_14_" class="st8" points="60,327.2 60,327.2 40.2,315.9 40.2,315.9 59.9,293 59.9,293 				"/>
				<polygon id="Path_15_" class="st7" points="20.5,338.9 40,350.2 40,350.2 40.2,315.9 40.2,315.9 				"/>
			</g>
		</g>
	</g>
</g>
</svg>
